<svg width="1440" height="20" viewBox="0 0 1440 20" fill="none" xmlns="http://www.w3.org/2000/svg">
<path d="M-8.00311 11.5167C-7.9939 15.9349 -4.40473 19.5092 0.0135414 19.5C4.43181 19.4908 8.00606 15.9016 7.99686 11.4833C7.98765 7.06506 4.39848 3.49081 -0.0197918 3.50002C-4.43806 3.50922 -8.01231 7.0984 -8.00311 11.5167ZM1432 8.51667C1432.01 12.9349 1435.6 16.5092 1440.01 16.5C1444.43 16.4908 1448.01 12.9016 1448 8.48333C1447.99 4.06506 1444.4 0.490812 1439.98 0.500017C1435.56 0.509222 1431.99 4.0984 1432 8.51667ZM-1.97557e-07 13L1440 10L1439.99 7L-0.00625018 10L-1.97557e-07 13Z" fill="black"/>
</svg>
